<svg xmlns="http://www.w3.org/2000/svg" width="508" height="377"><defs><pattern id="checker" width="20" height="20" patternUnits="userSpaceOnUse"><rect width="10" height="10" x="0" y="0" fill="#eee"/><rect width="10" height="10" x="10" y="10" fill="#eee"/><rect width="10" height="10" x="0" y="10" fill="#ccc"/><rect width="10" height="10" x="10" y="0" fill="#ccc"/></pattern></defs><style>svg{overflow:visible}.label{font-family:sans-serif;font-weight:700;font-size:30px;text-anchor:middle}.bg{fill:#888}.border{fill:transparent}.one{fill:#fcc}.two{fill:#cfc}.three{fill:#ccf}.four{fill:#cff}rect{stroke-width:2;stroke:#888}</style><svg width="250" height="120" x="2" y="2"><rect width="100%" height="100%" class="bg"/><rect width="20%" height="75%" x="0" y="0" class="one"/><rect width="16%" height="50%" x="20%" y="0" class="two"/><rect width="40%" height="75%" x="36%" y="0" class="three"/><rect width="24%" height="100%" x="76%" y="0" class="four"/><rect width="100%" height="100%" class="border"/><text x="50%" y="55%" class="label">flex-start</text></svg><svg width="250" height="120" x="256" y="2"><rect width="100%" height="100%" class="bg"/><rect width="20%" height="75%" x="0" y="25%" class="one"/><rect width="16%" height="50%" x="20%" y="50%" class="two"/><rect width="40%" height="75%" x="36%" y="25%" class="three"/><rect width="24%" height="100%" x="76%" y="0" class="four"/><rect width="100%" height="100%" class="border"/><text x="50%" y="55%" class="label">flex-end</text></svg><svg width="250" height="120" x="2" y="126"><rect width="100%" height="100%" class="bg"/><rect width="20%" height="75%" x="0" y="12.5%" class="one"/><rect width="16%" height="50%" x="20%" y="25%" class="two"/><rect width="40%" height="75%" x="36%" y="12.5%" class="three"/><rect width="24%" height="100%" x="76%" y="0" class="four"/><rect width="100%" height="100%" class="border"/><text x="50%" y="55%" class="label">center</text></svg><svg width="250" height="120" x="256" y="126"><rect width="100%" height="100%" class="bg"/><rect width="20%" height="100%" x="0" y="0" class="one"/><rect width="16%" height="100%" x="20%" y="0" class="two"/><rect width="40%" height="100%" x="36%" y="0" class="three"/><rect width="24%" height="100%" x="76%" y="0" class="four"/><rect width="100%" height="100%" class="border"/><text x="50%" y="55%" class="label">stretch</text></svg><svg width="504" height="125" x="2" y="250"><rect width="100%" height="100%" class="bg"/><svg width="20%" height="75%" x="0" y="5"><rect width="100%" height="100%" class="one"/><text x="2" y="20" style="font-size:20px">foo foo foo</text></svg><svg width="16%" height="50%" x="20%" y="10"><rect width="100%" height="100%" class="two"/><text x="2" y="15" style="font-size:15px">foo foo foo</text></svg><svg width="40%" height="75%" x="36%" y="0"><rect width="100%" height="100%" class="three"/><text x="2" y="25" style="font-size:25">foo foo foo foo foo</text></svg><svg width="24%" height="100%" x="76%" y="5"><rect width="100%" height="100%" class="four"/><text x="2" y="20" style="font-size:20px">foo foo foo</text></svg><path stroke="gray" stroke-dasharray="3" stroke-width="1" d="M 0 25.5 h 504"/><rect width="100%" height="100%" class="border"/><text x="50%" y="55%" class="label">baseline</text></svg></svg>